<svg width="20" height="20" viewBox="0 0 20 20" fill="none" xmlns="http://www.w3.org/2000/svg">
<path d="M19.7482 2.53354L13.9147 0.0334566C13.743 -0.0398662 13.5421 0.0101355 13.4255 0.155961L11.7587 2.23935C11.6804 2.33768 11.6504 2.46604 11.677 2.58936C11.702 2.70519 11.7787 2.80187 11.882 2.85937L6.64937 4.82194C6.21017 4.98695 5.83516 5.29864 5.59351 5.70115L3.86345 8.58457C3.49512 9.19877 3.46594 9.94794 3.78677 10.588L3.90927 10.833H2.08339C1.85338 10.833 1.6667 11.0197 1.6667 11.2497V19.1666H0.416655C0.186686 19.1666 0 19.3533 0 19.5833C0 19.8133 0.186686 20 0.416694 20H14.5839C14.8139 20 15.0006 19.8133 15.0006 19.5833C15.0006 19.3533 14.8139 19.1666 14.5839 19.1666H13.3338V14.9081C13.3338 14.7656 13.2605 14.6323 13.1405 14.5565C13.0205 14.4806 12.8688 14.4706 12.7397 14.5315C12.2838 14.7465 11.9463 14.8565 11.7854 14.9031C11.7504 14.9131 11.7179 14.9273 11.6871 14.9465L8.97371 16.574C8.54119 16.834 8.04785 16.9715 7.54698 16.9715C6.62527 16.9715 5.76524 16.5148 5.2369 15.7323C4.81938 15.1056 4.6752 14.3548 4.83106 13.6189C4.98689 12.8831 5.42108 12.2556 6.05611 11.8514L6.4503 11.6022C6.73363 11.4238 6.99114 11.263 7.222 11.1205C7.38283 11.0205 7.45701 10.8255 7.40119 10.6438C7.29869 10.3096 7.12786 10.0129 6.96536 9.78293C7.6037 9.5096 8.45873 9.01373 8.8921 8.50789C8.8946 8.50871 8.8971 8.51039 8.8996 8.51207C8.99293 8.56707 9.10043 8.62457 9.22293 8.68375C9.22961 8.68707 9.23461 8.69043 9.24125 8.69375C9.24207 8.69375 9.24293 8.69375 9.24375 8.69457C9.55294 8.84376 9.94296 8.99376 10.4013 9.08291C9.9146 9.68543 9.41876 10.4313 9.23875 10.928C8.89456 11.083 8.17622 11.4888 6.50284 12.5547C6.05864 12.8372 5.75531 13.2756 5.64613 13.7906C5.53781 14.3056 5.63863 14.8314 5.93196 15.2714C6.30529 15.8315 6.9195 16.1373 7.54702 16.1373C7.88785 16.1373 8.23286 16.0473 8.54623 15.8598L11.4096 14.1422C11.858 14.033 14.0856 13.3664 15.7731 10.6363C17.0957 8.49703 17.8399 6.77365 18.1465 5.99694L18.1932 6.02026C18.3699 6.10859 18.5582 6.15359 18.7515 6.15359C19.0724 6.15359 19.3891 6.02526 19.6216 5.80108C19.8666 5.56439 20.0024 5.24524 20.0024 4.90273V2.91774C20.0007 2.74937 19.9015 2.59854 19.7482 2.53354Z" fill="#3DB7A5"/>
</svg>
