<svg width="24" height="20" viewBox="0 0 24 20" fill="none" xmlns="http://www.w3.org/2000/svg">
<path d="M9.10108 1.49716e-05C8.18635 1.79265e-05 7.29218 0.261268 6.53178 0.750694C5.77137 1.24012 5.17892 1.93571 4.82941 2.74942C4.47991 3.56313 4.38907 4.45836 4.5684 5.32178C4.74773 6.18521 5.18916 6.978 5.83681 7.59981C6.48446 8.22162 7.30921 8.64448 8.20666 8.81486C9.1041 8.98524 10.0339 8.89548 10.8783 8.55694C11.7227 8.2184 12.4438 7.64631 12.9503 6.91308C13.4568 6.17986 13.7258 5.31847 13.7235 4.43796C13.7235 3.85419 13.6038 3.27615 13.3714 2.73696C13.1389 2.19778 12.7983 1.70803 12.3689 1.29578C11.9395 0.883524 11.4298 0.556868 10.8691 0.334519C10.3083 0.112171 9.70753 -0.00150131 9.10108 1.49716e-05ZM17.1843 8.85285C17.1132 8.8542 17.0447 8.87896 16.9902 8.92301C16.9357 8.96705 16.8986 9.02772 16.8849 9.09492L16.6693 10.5589C16.3247 10.6994 15.9957 10.8732 15.6874 11.0776L14.2504 10.5243C14.1819 10.5131 14.1114 10.5214 14.0477 10.548C13.9839 10.5746 13.9295 10.6184 13.8911 10.6741L12.6936 12.5876C12.6587 12.6455 12.6467 12.7136 12.6599 12.7793C12.6731 12.845 12.7106 12.9039 12.7655 12.945L13.963 13.8556C13.9121 14.2383 13.9121 14.6257 13.963 15.0083L12.7655 15.919C12.7115 15.9581 12.6744 16.015 12.6611 16.0787C12.6479 16.1425 12.6594 16.2087 12.6936 16.2648L13.8911 18.1898C13.963 18.3397 14.1186 18.3397 14.2504 18.3397L15.6874 17.7748C15.991 17.9895 16.3207 18.1676 16.6693 18.3051L16.8849 19.769C16.8966 19.8362 16.9336 19.8968 16.9888 19.9394C17.0441 19.9819 17.1136 20.0033 17.1843 19.9996H19.4955C19.562 19.9978 19.6258 19.9738 19.6761 19.9318C19.7263 19.8897 19.7598 19.8322 19.7709 19.769L19.9864 18.3051C20.3262 18.1578 20.6509 17.9803 20.9564 17.7748L22.3815 18.3397C22.5252 18.3397 22.6808 18.3397 22.7647 18.1898L23.9622 16.2648C23.9963 16.2087 24.0079 16.1425 23.9946 16.0787C23.9814 16.015 23.9443 15.9581 23.8903 15.919L22.6928 15.0083C22.7048 14.8202 22.7048 14.6316 22.6928 14.4435C22.7101 14.2594 22.7101 14.0743 22.6928 13.8902L23.8903 12.9796C23.9432 12.937 23.9792 12.8783 23.9923 12.8132C24.0054 12.7481 23.9947 12.6806 23.9622 12.6222L22.7647 10.7087C22.6928 10.5589 22.5371 10.5589 22.3934 10.5589L20.9564 11.1583C20.6509 10.9496 20.3214 10.7756 19.9745 10.6396L19.7589 9.1756C19.7531 9.1113 19.7232 9.05124 19.6747 9.00667C19.6262 8.96211 19.5625 8.9361 19.4955 8.93354H17.316M9.23281 11.1583C4.13141 11.1583 0 13.1179 0 15.5732V17.7864H11.1728C10.6687 16.7612 10.4072 15.6411 10.4072 14.5069C10.4072 13.3727 10.6687 12.2526 11.1728 11.2274C10.5281 11.1672 9.88031 11.1441 9.23281 11.1583ZM18.3339 12.8066C18.5732 12.7875 18.8141 12.8163 19.0413 12.8913C19.2685 12.9663 19.477 13.0858 19.6537 13.2424C19.8305 13.3989 19.9715 13.5891 20.068 13.8008C20.1645 14.0125 20.2143 14.2411 20.2143 14.4723C20.2143 14.7035 20.1645 14.9322 20.068 15.1439C19.9715 15.3556 19.8305 15.5457 19.6537 15.7023C19.477 15.8588 19.2685 15.9783 19.0413 16.0533C18.8141 16.1283 18.5732 16.1572 18.3339 16.138C17.8998 16.1032 17.4952 15.9126 17.2002 15.6041C16.9053 15.2956 16.7416 14.8916 16.7416 14.4723C16.7416 14.053 16.9053 13.6491 17.2002 13.3405C17.4952 13.032 17.8998 12.8414 18.3339 12.8066Z" fill="white"/>
</svg>
