<svg width="21" height="21" viewBox="0 0 21 21" fill="none" xmlns="http://www.w3.org/2000/svg">
<path fill-rule="evenodd" clip-rule="evenodd" d="M0 10.5C0 5.55025 -1.2517e-07 3.07538 1.53769 1.53769C3.07538 -1.2517e-07 5.55025 0 10.5 0C15.4497 0 17.9247 -1.2517e-07 19.4623 1.53769C21 3.07538 21 5.55025 21 10.5C21 15.4497 21 17.9247 19.4623 19.4623C17.9247 21 15.4497 21 10.5 21C5.55025 21 3.07538 21 1.53769 19.4623C-1.2517e-07 17.9247 0 15.4497 0 10.5ZM10.5 16.5375C10.9349 16.5375 11.2875 16.1849 11.2875 15.75V10.3012L13.0932 12.1068C13.4007 12.4144 13.8993 12.4144 14.2068 12.1068C14.5144 11.7993 14.5144 11.3007 14.2068 10.9932L11.0568 7.84315C10.9092 7.69547 10.7088 7.6125 10.5 7.6125C10.2912 7.6125 10.0908 7.69547 9.94318 7.84315L6.79315 10.9932C6.48562 11.3007 6.48562 11.7993 6.79315 12.1068C7.10069 12.4144 7.59931 12.4144 7.90685 12.1068L9.7125 10.3012V15.75C9.7125 16.1849 10.0651 16.5375 10.5 16.5375ZM6.3 6.0375C5.86508 6.0375 5.5125 5.68492 5.5125 5.25C5.5125 4.81508 5.86508 4.4625 6.3 4.4625H14.7C15.1349 4.4625 15.4875 4.81508 15.4875 5.25C15.4875 5.68492 15.1349 6.0375 14.7 6.0375H6.3Z" fill="white"/>
</svg>
