<svg width="19" height="17" viewBox="0 0 19 17" fill="none" xmlns="http://www.w3.org/2000/svg">
<path fill-rule="evenodd" clip-rule="evenodd" d="M3.14612 7.33031C5.91857 2.44343 7.30479 0 9.5 0C11.6952 0 13.0814 2.44343 15.8539 7.33031L16.1993 7.93928C18.5032 12.0002 19.6552 14.0307 18.614 15.5153C17.5729 17 14.9971 17 9.84551 17H9.15448C4.00288 17 1.42706 17 0.385947 15.5153C-0.655177 14.0307 0.496765 12.0002 2.80065 7.93928L3.14612 7.33031ZM9.5 4.01389C9.89349 4.01389 10.2125 4.33102 10.2125 4.72222V9.44444C10.2125 9.83563 9.89349 10.1528 9.5 10.1528C9.10651 10.1528 8.7875 9.83563 8.7875 9.44444V4.72222C8.7875 4.33102 9.10651 4.01389 9.5 4.01389ZM9.5 13.2222C10.0247 13.2222 10.45 12.7994 10.45 12.2778C10.45 11.7562 10.0247 11.3333 9.5 11.3333C8.97531 11.3333 8.55 11.7562 8.55 12.2778C8.55 12.7994 8.97531 13.2222 9.5 13.2222Z" fill="#3DB7A5"/>
</svg>
