<svg width="16" height="16" viewBox="0 0 16 16" fill="none" xmlns="http://www.w3.org/2000/svg">
<path fill-rule="evenodd" clip-rule="evenodd" d="M8.13574 14.616C8.13574 14.21 8.46486 13.8809 8.87088 13.8809H14.752C15.158 13.8809 15.4871 14.21 15.4871 14.616C15.4871 15.022 15.158 15.3511 14.752 15.3511H8.87088C8.46486 15.3511 8.13574 15.022 8.13574 14.616Z" fill="#3DB7A5"/>
<path fill-rule="evenodd" clip-rule="evenodd" d="M14.5853 5.13272C15.7687 3.94464 15.7185 2.38447 14.8348 1.42902C14.4039 0.963147 13.7906 0.665564 13.096 0.649156C12.3988 0.632689 11.6765 0.899315 11.0099 1.45697C10.9929 1.47124 10.9765 1.48626 10.9608 1.50201L1.42703 11.0738C1.01533 11.4871 0.78418 12.0468 0.78418 12.6302V13.8751C0.78418 14.6849 1.4399 15.3511 2.25727 15.3511H3.49143C4.07786 15.3511 4.64014 15.1176 5.05398 14.7021L14.5853 5.13272ZM11.9635 3.43677C11.6764 3.14968 11.2109 3.14968 10.9238 3.43677C10.6368 3.72386 10.6368 4.18932 10.9238 4.47641L11.659 5.21154C11.946 5.49863 12.4115 5.49863 12.6986 5.21154C12.9857 4.92445 12.9857 4.45899 12.6986 4.1719L11.9635 3.43677Z" fill="#3DB7A5"/>
</svg>
