<svg width="20" height="12" viewBox="0 0 20 12" fill="none" xmlns="http://www.w3.org/2000/svg">
<path d="M9.56771 4.25063C10.4781 4.25063 11.22 4.98153 11.22 5.87685C11.22 6.77218 10.4774 7.47969 9.56771 7.47969C8.65805 7.47969 7.93921 6.77218 7.93921 5.87685C7.93921 4.98153 8.65805 4.25063 9.56771 4.25063ZM9.56771 0.243164C14.9805 0.243164 18.8835 5.24024 18.8835 5.24024C19.1471 5.57062 19.1471 6.15971 18.8835 6.48933C18.8835 6.48933 14.9797 11.4864 9.56771 11.4864C4.15572 11.4864 0.251918 6.48933 0.251918 6.48933C-0.0117072 6.15895 -0.0117072 5.56986 0.251918 5.24024C0.251918 5.24024 4.15572 0.243164 9.56771 0.243164ZM9.56771 9.90771C11.8193 9.90771 13.6631 8.09292 13.6631 5.87685C13.6631 3.66079 11.8193 1.846 9.56771 1.846C7.31617 1.846 5.47232 3.66079 5.47232 5.87685C5.47232 8.09292 7.31617 9.90771 9.56771 9.90771Z" fill="#3DB7A5"/>
</svg>
