<svg width="102" height="54" viewBox="0 0 102 54" fill="none" xmlns="http://www.w3.org/2000/svg">
<g clip-path="url(#clip0_1067_459)">
<path d="M22.9294 53.1564H32.7922V17.4658H22.9294V30.8814H10.7905V17.4658H0.927734V53.1564H10.7905V38.8127H22.9294V53.1564ZM37.0914 38.2221C37.0914 48.3471 43.5823 53.4939 52.1806 53.4939C60.6947 53.4939 67.7757 48.3471 67.7757 38.2221V17.4658H57.8286V38.2221C57.8286 41.8502 56.0583 44.2127 52.3492 44.2127C48.6401 44.2127 46.9542 41.8502 46.9542 38.2221V17.4658H37.0914V38.2221ZM91.379 42.1033C91.379 44.2127 90.1145 45.2252 87.6699 45.2252H81.8534V38.7283H87.5856C90.0302 38.7283 91.379 39.9096 91.379 42.1033ZM90.6203 28.6033C90.6203 30.7127 89.3558 31.7252 86.9112 31.7252H81.8534V25.3971H86.9112C89.3558 25.3971 90.6203 26.4939 90.6203 28.6033ZM101.579 43.5377C101.579 39.4877 98.9658 35.8596 94.7509 34.9314C98.2071 33.9189 100.736 31.1346 100.736 26.8314C100.736 20.8408 96.2682 17.5502 89.103 17.5502H71.9906V53.2408H89.6087C97.2798 53.2408 101.579 49.5283 101.579 43.5377Z" fill="white"/>
<path d="M8.00799 0.843555V8.18418L3.20303 0.843555H0.336914V12.6561H3.20303V5.31543L8.00799 12.6561H10.9584V0.843555H8.00799ZM20.6526 0.843555H13.403V12.6561H20.6526V10.3779H16.2691V7.7623H20.1468V5.48418H16.2691V3.12168H20.6526V0.843555ZM22.9286 12.6561H25.7948V0.843555H22.9286V12.6561ZM33.803 0.674805C30.2625 0.674805 27.8179 3.20605 27.8179 6.7498C27.8179 10.2936 30.3468 12.7404 33.8873 12.7404C37.0063 12.7404 38.9452 10.7154 39.5353 8.69043V5.99043H33.2972V8.0998H36.922C36.5005 9.44981 35.489 10.2092 34.0559 10.2092C32.0328 10.2092 30.7683 8.94355 30.7683 6.7498C30.7683 4.64043 31.9485 3.3748 33.803 3.3748C34.8989 3.3748 35.7419 3.79668 36.1634 4.55605H39.3667C38.6923 2.10918 36.6691 0.674805 33.803 0.674805ZM48.9766 12.6561H51.8427V0.843555H48.9766V5.48418H44.4245V0.843555H41.5584V12.6561H44.4245V7.7623H48.9766V12.6561ZM60.8625 9.02793C60.8625 9.87168 60.2724 10.3779 59.3452 10.3779H57.2377V7.7623H59.3452C60.2724 7.7623 60.8625 8.18418 60.8625 9.02793ZM60.6096 4.3873C60.6096 5.23105 60.0196 5.65293 59.0923 5.65293H57.2377V3.12168H59.0923C60.0196 3.12168 60.6096 3.54355 60.6096 4.3873ZM63.8129 9.4498C63.8129 8.0998 62.8857 6.91855 61.5369 6.58105C62.6328 6.24355 63.4758 5.31543 63.4758 3.88105C63.4758 2.0248 62.0427 0.843555 59.6824 0.843555H54.3716V12.6561H59.851C62.3799 12.6561 63.8129 11.3904 63.8129 9.4498ZM77.5534 6.7498C77.5534 3.12168 74.8559 0.674805 71.484 0.674805C68.1121 0.674805 65.4146 3.12168 65.4146 6.7498C65.4146 10.2936 68.1121 12.8248 71.484 12.8248C74.8559 12.8248 77.5534 10.2936 77.5534 6.7498ZM68.365 6.7498C68.365 4.64043 69.5452 3.29043 71.484 3.29043C73.3386 3.29043 74.603 4.64043 74.603 6.7498C74.603 8.77481 73.3386 10.1248 71.484 10.1248C69.5452 10.1248 68.365 8.77481 68.365 6.7498ZM79.4923 7.93105C79.4923 11.1373 81.5997 12.8248 84.3815 12.8248C87.0791 12.8248 89.3551 11.1373 89.3551 7.93105V0.843555H86.489V7.93105C86.489 9.28105 85.8146 10.1248 84.4658 10.1248C83.0328 10.1248 82.3584 9.28105 82.3584 7.93105V0.843555H79.4923V7.93105ZM98.122 4.7248C98.122 5.65293 97.6162 6.15918 96.5204 6.15918H94.7501V3.20605H96.5204C97.6162 3.20605 98.122 3.79668 98.122 4.7248ZM91.884 0.843555V12.6561H94.7501V8.18418H95.4245L97.8691 12.6561H101.157L98.3749 8.01543C100.229 7.4248 101.072 6.0748 101.072 4.55605C101.072 2.53105 99.5551 0.843555 96.689 0.843555H91.884Z" fill="white"/>
</g>
<defs>
<clipPath id="clip0_1067_459">
<rect width="102" height="54" fill="white"/>
</clipPath>
</defs>
</svg>
