<svg width="55" height="55" viewBox="0 0 55 55" fill="none" xmlns="http://www.w3.org/2000/svg">
<path d="M36.6668 9.73926C36.6668 12.5809 34.3522 14.8955 31.5106 14.8955H23.4897C22.0689 14.8955 20.7856 14.3226 19.846 13.383C18.9064 12.4434 18.3335 11.1601 18.3335 9.73926C18.3335 6.89759 20.6481 4.58301 23.4897 4.58301H31.5106C32.9314 4.58301 34.2147 5.15592 35.1543 6.09551C36.0939 7.03509 36.6668 8.31842 36.6668 9.73926Z" fill="#3DB7A5"/>
<path d="M43.1519 11.527C42.6248 11.0916 42.029 10.7478 41.3873 10.4957C40.7227 10.2436 40.0582 10.7707 39.9207 11.4582C39.1415 15.377 35.6811 18.3332 31.5103 18.3332H23.4894C21.1978 18.3332 19.0436 17.4395 17.4165 15.8124C16.2248 14.6207 15.3998 13.1082 15.079 11.4811C14.9415 10.7936 14.254 10.2436 13.5894 10.5186C10.9311 11.5957 9.1665 14.0249 9.1665 18.9061V41.2499C9.1665 48.1249 13.2686 50.4166 18.3332 50.4166H36.6665C41.7311 50.4166 45.8332 48.1249 45.8332 41.2499V18.9061C45.8332 15.1707 44.8019 12.8791 43.1519 11.527ZM18.3332 28.0728H27.4998C28.4394 28.0728 29.2186 28.852 29.2186 29.7916C29.2186 30.7311 28.4394 31.5103 27.4998 31.5103H18.3332C17.3936 31.5103 16.6144 30.7311 16.6144 29.7916C16.6144 28.852 17.3936 28.0728 18.3332 28.0728ZM36.6665 40.677H18.3332C17.3936 40.677 16.6144 39.8978 16.6144 38.9582C16.6144 38.0186 17.3936 37.2395 18.3332 37.2395H36.6665C37.6061 37.2395 38.3853 38.0186 38.3853 38.9582C38.3853 39.8978 37.6061 40.677 36.6665 40.677Z" fill="#3DB7A5"/>
</svg>
