<svg width="72" height="72" viewBox="0 0 72 72" fill="none" xmlns="http://www.w3.org/2000/svg">
<path fill-rule="evenodd" clip-rule="evenodd" d="M0 36C0 19.0294 -4.08718e-07 10.5441 5.27209 5.27209C10.5441 -4.08718e-07 19.0294 0 36 0C52.9704 0 61.456 -4.08718e-07 66.7278 5.27209C72 10.5441 72 19.0294 72 36C72 52.9704 72 61.456 66.7278 66.7278C61.456 72 52.9704 72 36 72C19.0294 72 10.5441 72 5.27209 66.7278C-4.08718e-07 61.456 0 52.9704 0 36ZM36 56.7C37.4911 56.7 38.7 55.4911 38.7 54V35.3185L44.8909 41.5091C45.9454 42.5635 47.6546 42.5635 48.7091 41.5091C49.7635 40.4546 49.7635 38.7454 48.7091 37.6909L37.9091 26.8908C37.4029 26.3845 36.716 26.1 36 26.1C35.284 26.1 34.5971 26.3845 34.0909 26.8908L23.2908 37.6909C22.2364 38.7454 22.2364 40.4546 23.2908 41.5091C24.3452 42.5635 26.0548 42.5635 27.1092 41.5091L33.3 35.3185V54C33.3 55.4911 34.5089 56.7 36 56.7ZM21.6 20.7C20.1088 20.7 18.9 19.4912 18.9 18C18.9 16.5088 20.1088 15.3 21.6 15.3H50.4C51.8911 15.3 53.1 16.5088 53.1 18C53.1 19.4912 51.8911 20.7 50.4 20.7H21.6Z" fill="#3DB7A5"/>
</svg>
