<svg width="53" height="53" viewBox="0 0 53 53" fill="none" xmlns="http://www.w3.org/2000/svg">
<path fill-rule="evenodd" clip-rule="evenodd" d="M35.6831 18.1806C35.6831 23.3694 31.5465 27.5301 26.3876 27.5301C21.2287 27.5301 17.0921 23.3694 17.0921 18.1806C17.0921 12.9897 21.2287 8.83301 26.3876 8.83301C31.5465 8.83301 35.6831 12.9897 35.6831 18.1806ZM26.3876 44.1663C18.8104 44.1663 12.3405 42.9651 12.3405 38.16C12.3405 33.353 18.7689 32.108 26.3876 32.108C33.9648 32.108 40.4347 33.3093 40.4347 38.1163C40.4347 42.9213 34.0063 44.1663 26.3876 44.1663ZM39.6554 18.3492C39.6554 20.9944 38.8664 23.4585 37.4823 25.507C37.3399 25.7179 37.4665 26.0023 37.7176 26.046C38.0636 26.1057 38.4215 26.1395 38.7854 26.1494C42.4138 26.2449 45.6705 23.8961 46.5702 20.3599C47.9029 15.1074 43.9898 10.3919 39.0068 10.3919C38.465 10.3919 37.947 10.4495 37.4428 10.553C37.3736 10.5689 37.3004 10.6007 37.2608 10.6623C37.2134 10.7379 37.249 10.8393 37.2964 10.905C38.7933 13.0151 39.6554 15.5887 39.6554 18.3492ZM45.6646 29.8399C48.1026 30.3192 49.7063 31.2978 50.3707 32.7198C50.9322 33.8872 50.9322 35.2416 50.3707 36.4071C49.3543 38.6127 46.0778 39.3207 44.8044 39.5037C44.5414 39.5435 44.3299 39.3148 44.3575 39.0502C45.0081 32.9385 39.8334 30.0408 38.4947 29.3745C38.4374 29.3447 38.4255 29.299 38.4314 29.2711C38.4354 29.2512 38.4591 29.2194 38.5026 29.2134C41.3994 29.1597 44.5138 29.5575 45.6646 29.8399ZM14.2154 26.1492C14.5793 26.1393 14.9352 26.1075 15.2832 26.0458C15.5343 26.0021 15.6609 25.7177 15.5185 25.5068C14.1344 23.4583 13.3454 20.9942 13.3454 18.349C13.3454 15.5885 14.2075 13.0149 15.7044 10.9048C15.7518 10.8392 15.7855 10.7377 15.74 10.6621C15.7004 10.6025 15.6253 10.5687 15.5581 10.5528C15.0519 10.4493 14.5338 10.3917 13.992 10.3917C9.00909 10.3917 5.09592 15.1072 6.43063 20.3597C7.33032 23.8959 10.587 26.2447 14.2154 26.1492ZM14.5684 29.2699C14.5743 29.2998 14.5625 29.3435 14.5071 29.3753C13.1665 30.0416 7.99174 32.9393 8.64229 39.0491C8.66997 39.3156 8.46038 39.5423 8.19739 39.5045C6.92398 39.3215 3.64751 38.6135 2.63115 36.4079C2.06761 35.2404 2.06761 33.888 2.63115 32.7206C3.29554 31.2985 4.89719 30.32 7.33526 29.8387C8.48806 29.5583 11.6004 29.1605 14.4992 29.2142C14.5427 29.2202 14.5644 29.252 14.5684 29.2699Z" fill="#3DB7A5"/>
</svg>
