<svg width="43" height="38" viewBox="0 0 43 38" fill="none" xmlns="http://www.w3.org/2000/svg">
<path fill-rule="evenodd" clip-rule="evenodd" d="M7.12018 16.3854C13.3946 5.46178 16.5319 0 21.5 0C26.468 0 29.6053 5.46178 35.8798 16.3854L36.6616 17.7466C41.8758 26.824 44.4829 31.3627 42.1265 34.6813C39.7703 38 33.9408 38 22.282 38H20.718C9.05915 38 3.22967 38 0.873459 34.6813C-1.48277 31.3627 1.12426 26.824 6.33831 17.7466L7.12018 16.3854ZM21.5 8.97222C22.3905 8.97222 23.1125 9.68111 23.1125 10.5556V21.1111C23.1125 21.9855 22.3905 22.6944 21.5 22.6944C20.6095 22.6944 19.8875 21.9855 19.8875 21.1111V10.5556C19.8875 9.68111 20.6095 8.97222 21.5 8.97222ZM21.5 29.5556C22.6874 29.5556 23.65 28.6104 23.65 27.4444C23.65 26.2785 22.6874 25.3333 21.5 25.3333C20.3126 25.3333 19.35 26.2785 19.35 27.4444C19.35 28.6104 20.3126 29.5556 21.5 29.5556Z" fill="#3DB7A5"/>
</svg>
